<?xml version="1.0" encoding="utf-8"?>
<!DOCTYPE svg PUBLIC "-//W3C//DTD SVG 20010904//EN" "http://www.w3.org/TR/2001/REC-SVG-20010904/DTD/svg10.dtd">
<svg version="1.0" xmlns="http://www.w3.org/2000/svg" width="258pt" height="258pt" viewBox="0 0 258 258" style="" preserveAspectRatio="xMidYMid meet">
<g fill="#FC3D49FF" stroke="#FC3D49FF">
<path d="M 154.929 40.367 C 137.993 44.934 129.813 59.439 134.418 76.737 L 135.812 81.974 131.656 83.079 C 119.810 86.231 106.847 96.174 100.292 107.136 C 91.524 121.799 92.150 142.049 101.766 154.788 C 106.673 161.290 110.566 164.454 117.662 167.706 C 122.460 169.905 124.925 170.378 131.500 170.364 C 146.343 170.333 157.780 163.287 164.219 150.206 C 167.326 143.894 167.495 142.986 167.403 133.021 C 167.324 124.383 166.767 120.710 164.292 112.500 C 162.633 107.000 161.643 102.357 162.091 102.182 C 163.819 101.509 172.058 106.012 176.371 109.987 C 186.234 119.079 191.140 130.771 191.086 145.058 C 191.030 159.834 186.228 171.104 175.590 181.421 C 156.867 199.580 127.405 204.201 103.192 192.777 C 80.831 182.226 66.000 158.779 66.000 133.978 C 66.000 108.321 79.269 87.336 103.308 74.974 C 109.197 71.945 110.744 70.635 111.846 67.741 C 113.016 64.671 112.977 63.753 111.548 60.742 C 108.497 54.313 103.563 53.553 94.062 58.047 C 72.080 68.446 55.399 88.939 48.922 113.500 C 46.238 123.681 45.954 141.201 48.302 151.817 C 54.748 180.961 76.666 205.113 105.030 214.327 C 156.318 230.988 210.965 195.225 210.965 145.000 C 210.965 114.222 189.764 86.921 161.895 81.810 L 155.290 80.599 153.674 73.865 C 151.650 65.431 152.620 61.883 157.595 59.522 C 161.696 57.576 164.235 58.167 168.768 62.120 C 172.900 65.724 176.223 66.564 180.059 64.975 C 192.248 59.927 185.047 44.852 168.373 40.509 C 161.605 38.746 160.967 38.739 154.929 40.367 M 144.540 114.250 C 146.761 121.962 148.385 129.799 148.425 133.000 C 148.555 143.478 143.031 150.001 133.347 150.804 C 126.628 151.361 122.866 149.829 118.538 144.774 C 109.965 134.758 112.160 119.191 123.559 109.157 C 127.616 105.586 136.287 101.208 139.612 101.052 C 140.223 101.023 142.441 106.963 144.540 114.250 "/></g>
<g fill="#FF404004" stroke="#FF404004">
<path d="M 85.500 88.435 L 82.500 91.564 85.500 88.435 L 88.500 85.305 85.500 88.435 "/></g>
<g fill="#FF404004" stroke="#FF404004">
<path d="M 176.000 179.924 L 173.500 182.566 176.000 179.924 L 178.500 177.282 176.000 179.924 "/></g>
<g fill="#FB3C4840" stroke="#FB3C4840">
<path d="M 177.000 111.000 L 179.500 113.500 177.000 111.000 L 174.500 108.500 177.000 111.000 "/></g>
<g fill="#FD3D49DF" stroke="#FD3D49DF">
<path d="M 176.500 180.410 L 174.500 182.567 176.500 180.410 L 178.500 178.253 176.500 180.410 "/></g>
<g fill="#FF404004" stroke="#FF404004">
<path d="M 143.000 145.888 L 141.500 147.563 143.000 145.888 L 144.500 144.212 143.000 145.888 "/></g>
<g fill="#FB3C4840" stroke="#FB3C4840">
<path d="M 192.000 97.000 L 194.000 99.000 192.000 97.000 L 190.000 95.000 192.000 97.000 "/></g>
<g fill="#FD3D498F" stroke="#FD3D498F">
<path d="M 190.000 194.888 L 188.500 196.563 190.000 194.888 L 191.500 193.212 190.000 194.888 "/></g>
<g fill="#FF404004" stroke="#FF404004">
<path d="M 85.500 179.500 L 87.000 181.000 85.500 179.500 L 84.000 178.000 85.500 179.500 "/></g>
<g fill="#FF404004" stroke="#FF404004">
<path d="M 107.500 162.500 L 109.000 164.000 107.500 162.500 L 106.000 161.000 107.500 162.500 "/></g>
<g fill="#FF404004" stroke="#FF404004">
<path d="M 103.500 158.500 L 105.000 160.000 103.500 158.500 L 102.000 157.000 103.500 158.500 "/></g>
<g fill="#FF404004" stroke="#FF404004">
<path d="M 105.378 98.378 L 104.500 99.256 105.378 98.378 L 106.256 97.500 105.378 98.378 "/></g>
<g fill="#FF404004" stroke="#FF404004">
<path d="M 188.500 93.500 L 190.000 95.000 188.500 93.500 L 187.000 92.000 188.500 93.500 "/></g>
<g fill="#FF404004" stroke="#FF404004">
<path d="M 110.378 93.378 L 109.500 94.256 110.378 93.378 L 111.256 92.500 110.378 93.378 "/></g>
<g fill="#FF404004" stroke="#FF404004">
<path d="M 70.378 73.378 L 69.500 74.256 70.378 73.378 L 71.256 72.500 70.378 73.378 "/></g>
<g fill="#FF404004" stroke="#FF404004">
<path d="M 110.500 57.500 L 112.000 59.000 110.500 57.500 L 109.000 56.000 110.500 57.500 "/></g>
<g fill="#FB3C4840" stroke="#FB3C4840">
<path d="M 73.500 196.500 L 75.000 198.000 73.500 196.500 L 72.000 195.000 73.500 196.500 "/></g>
<g fill="#FB3C4840" stroke="#FB3C4840">
<path d="M 68.500 191.500 L 70.000 193.000 68.500 191.500 L 67.000 190.000 68.500 191.500 "/></g>
<g fill="#FB3C4840" stroke="#FB3C4840">
<path d="M 183.378 63.378 L 182.500 64.256 183.378 63.378 L 184.256 62.500 183.378 63.378 "/></g>
<g fill="#FB3C4840" stroke="#FB3C4840">
<path d="M 168.500 62.500 L 170.000 64.000 168.500 62.500 L 167.000 61.000 168.500 62.500 "/></g>
<g fill="#FB3C4840" stroke="#FB3C4840">
<path d="M 182.500 47.500 L 184.000 49.000 182.500 47.500 L 181.000 46.000 182.500 47.500 "/></g>
<g fill="#FB3C4840" stroke="#FB3C4840">
<path d="M 140.378 47.378 L 139.500 48.256 140.378 47.378 L 141.256 46.500 140.378 47.378 "/></g>
<g fill="#FD3D498F" stroke="#FD3D498F">
<path d="M 157.378 160.378 L 156.500 161.256 157.378 160.378 L 158.256 159.500 157.378 160.378 "/></g>
<g fill="#FD3D49DF" stroke="#FD3D49DF">
<path d="M 143.378 146.378 L 142.500 147.256 143.378 146.378 L 144.256 145.500 143.378 146.378 "/></g>
</svg>
